<svg width="46" height="46" viewBox="0 0 46 46" fill="none" xmlns="http://www.w3.org/2000/svg">
<path d="M27.7078 6.90906C27.7443 6.77215 27.8075 6.64378 27.8936 6.53129C27.9798 6.4188 28.0872 6.32439 28.2099 6.25347C28.3326 6.18254 28.468 6.13649 28.6085 6.11795C28.7489 6.0994 28.8917 6.10873 29.0285 6.14539C31.6326 6.82464 34.0084 8.18585 35.9113 10.0888C37.8143 11.9917 39.1755 14.3675 39.8547 16.9716C39.8914 17.1084 39.9007 17.2512 39.8822 17.3916C39.8636 17.5321 39.8176 17.6675 39.7466 17.7902C39.6757 17.9129 39.5813 18.0203 39.4688 18.1065C39.3563 18.1926 39.2279 18.2558 39.091 18.2923C39.0002 18.3165 38.9065 18.3285 38.8125 18.3282C38.575 18.3283 38.3441 18.25 38.1556 18.1054C37.9671 17.9608 37.8317 17.7581 37.7703 17.5286C37.1872 15.2918 36.0181 13.251 34.3836 11.6165C32.7491 9.982 30.7083 8.81292 28.4715 8.22976C28.3346 8.19326 28.2062 8.13013 28.0937 8.04399C27.9812 7.95784 27.8868 7.85036 27.8159 7.7277C27.745 7.60505 27.6989 7.46961 27.6804 7.32914C27.6618 7.18867 27.6712 7.04592 27.7078 6.90906ZM27.034 13.9798C29.6485 14.677 31.3231 16.3516 32.0203 18.9661C32.0817 19.1956 32.2171 19.3983 32.4056 19.5429C32.594 19.6875 32.825 19.7658 33.0625 19.7657C33.1565 19.766 33.2502 19.754 33.341 19.7298C33.4779 19.6933 33.6063 19.6301 33.7188 19.544C33.8313 19.4578 33.9257 19.3504 33.9966 19.2277C34.0676 19.105 34.1136 18.9696 34.1322 18.8291C34.1507 18.6887 34.1414 18.5459 34.1047 18.4091C33.2063 15.0471 30.953 12.7938 27.591 11.8954C27.4542 11.8588 27.3114 11.8496 27.171 11.8681C27.0306 11.8867 26.8952 11.9328 26.7725 12.0037C26.5248 12.1469 26.3442 12.3827 26.2703 12.6591C26.1965 12.9355 26.2354 13.2299 26.3786 13.4776C26.5219 13.7253 26.7576 13.9059 27.034 13.9798ZM41.3084 31.4095C41.0005 33.7584 39.8478 35.9148 38.0657 37.4757C36.2836 39.0366 33.994 39.8951 31.625 39.8907C17.5555 39.8907 6.10939 28.4446 6.10939 14.3751C6.10485 12.0069 6.96258 9.718 8.52237 7.93601C10.0821 6.15401 12.2373 5.00078 14.5853 4.69172C15.1257 4.62603 15.673 4.73748 16.1447 5.00932C16.6165 5.28116 16.9873 5.69873 17.2015 6.19929L20.9929 14.6626C21.1603 15.0457 21.2296 15.4645 21.1944 15.8812C21.1593 16.2978 21.0209 16.6991 20.7917 17.0488C20.7685 17.0844 20.7433 17.1186 20.7162 17.1512L16.9302 21.6542C16.9072 21.7009 16.8952 21.7522 16.8952 21.8043C16.8952 21.8563 16.9072 21.9076 16.9302 21.9543C18.3066 24.7718 21.2606 27.7043 24.1177 29.0789C24.1654 29.1007 24.2175 29.111 24.2699 29.1091C24.3223 29.1073 24.3735 29.0932 24.4196 29.0681L28.856 25.2947C28.8877 25.2671 28.9213 25.2419 28.9567 25.2192C29.3048 24.9871 29.7053 24.8455 30.122 24.8072C30.5387 24.7689 30.9583 24.8352 31.3429 25L39.8314 28.804C40.3253 29.0229 40.7356 29.395 41.0016 29.8652C41.2676 30.3354 41.3752 30.8787 41.3084 31.4148V31.4095ZM39.1719 31.1435C39.1779 31.0684 39.1602 30.9932 39.1212 30.9288C39.0821 30.8643 39.0238 30.8137 38.9545 30.7841L30.4642 26.9802C30.4179 26.9623 30.3681 26.9546 30.3185 26.9577C30.2689 26.9608 30.2205 26.9746 30.1767 26.9981L25.7421 30.7716C25.7097 30.7985 25.6756 30.8237 25.6414 30.847C25.2797 31.0882 24.8616 31.2316 24.428 31.2631C23.9943 31.2946 23.5599 31.2131 23.1671 31.0267C19.8681 29.4329 16.5798 26.1752 14.986 22.9066C14.7985 22.5161 14.715 22.0838 14.7437 21.6516C14.7723 21.2194 14.9121 20.8019 15.1495 20.4395C15.1726 20.4035 15.1984 20.3693 15.2267 20.3371L19.011 15.8341C19.0326 15.7871 19.0438 15.7359 19.0438 15.6841C19.0438 15.6323 19.0326 15.5811 19.011 15.5341L15.2267 7.06359C15.2018 6.99561 15.1568 6.93676 15.0978 6.89475C15.0388 6.85275 14.9685 6.82955 14.8961 6.8282H14.8548C13.0273 7.0713 11.3507 7.97127 10.1382 9.36005C8.92562 10.7488 8.26002 12.5315 8.26564 14.3751C8.26564 27.2551 18.745 37.7345 31.625 37.7345C33.4689 37.74 35.2518 37.0742 36.6406 35.8613C38.0294 34.6484 38.9292 32.9714 39.1719 31.1435Z" fill="white"/>
</svg>
